<?xml version="1.0" encoding="UTF-8" standalone="no"?>
<svg width="17px" height="17px" viewBox="0 0 17 17" version="1.1" xmlns="http://www.w3.org/2000/svg" xmlns:xlink="http://www.w3.org/1999/xlink">
    <!-- Generator: Sketch 45.2 (43514) - http://www.bohemiancoding.com/sketch -->
    <title>Combined Shape</title>
    <desc>Created with Sketch.</desc>
    <defs></defs>
    <g id="Page-1" stroke="none" stroke-width="1" fill="none" fill-rule="evenodd">
        <g id="Artboard-5" transform="translate(-1216.000000, -172.000000)" fill-rule="nonzero" fill="#91949B">
            <path d="M1224.5,178.151105 L1218.83537,172.486472 C1218.18674,171.837843 1217.1351,171.837843 1216.48647,172.486472 C1215.83784,173.135101 1215.83784,174.186738 1216.48647,174.835367 L1222.15111,180.5 L1216.48647,186.164633 C1215.83784,186.813262 1215.83784,187.864899 1216.48647,188.513528 C1217.1351,189.162157 1218.18674,189.162157 1218.83537,188.513528 L1224.5,182.848895 L1230.16463,188.513528 C1230.81326,189.162157 1231.8649,189.162157 1232.51353,188.513528 C1233.16216,187.864899 1233.16216,186.813262 1232.51353,186.164633 L1226.84889,180.5 L1232.51353,174.835367 C1233.16216,174.186738 1233.16216,173.135101 1232.51353,172.486472 C1231.8649,171.837843 1230.81326,171.837843 1230.16463,172.486472 L1224.5,178.151105 Z" id="Combined-Shape"></path>
        </g>
    </g>
</svg>