<?xml version="1.0" encoding="UTF-8" standalone="no"?>
<svg width="160px" height="160px" viewBox="0 0 160 160" version="1.1" xmlns="http://www.w3.org/2000/svg" xmlns:xlink="http://www.w3.org/1999/xlink">
    <!-- Generator: Sketch 44.1 (41455) - http://www.bohemiancoding.com/sketch -->
    <title>Group</title>
    <desc>Created with Sketch.</desc>
    <defs></defs>
    <g id="Page-1" stroke="none" stroke-width="1" fill="none" fill-rule="evenodd">
        <g id="new-nudgeoff" transform="translate(-363.000000, -136.000000)" fill="#CFCDCD">
            <g id="Group" transform="translate(363.000000, 136.000000)">
                <path d="M14.8051237,41 C6.2539254,38.4830457 0,30.4407603 0,20.9086732 C0,9.36113187 9.17816263,0 20.5,0 C31.8218374,0 41,9.36113187 41,20.9086732 C41,24.4017693 40.1601577,27.6947992 38.6751863,30.5891682 L24.7696396,13.6868157 C24.6337949,13.5216949 24.4906002,13.3665185 24.3409494,13.2213691 C23.3344542,12.1338145 21.9075923,11.4553757 20.3252245,11.4553757 C17.2758867,11.4553757 14.8051237,13.9755364 14.8051237,17.0843122 L14.8051237,41 Z" id="Combined-Shape"></path>
                <path d="M14.8051237,41 L11.0007241,41 C4.92517917,41 0,45.9251919 0,52.0007241 L0,70.9992759 C0,77.0748208 4.92519193,82 11.0007241,82 L29.9992759,82 C36.0748208,82 41,77.0748081 41,70.9992759 L41,52.0007241 C41,45.9251792 36.0748081,41 29.9992759,41 L25.8453253,41 L25.8453253,65.1556019 C25.8453253,68.2036147 23.3745623,70.6745173 20.3252245,70.6745173 C17.276557,70.6745173 14.8051237,68.2053912 14.8051237,65.1556019 L14.8051237,41 Z" id="Combined-Shape"></path>
                <path d="M66.7826816,42 C75.5443534,44.3698035 82,52.4934514 82,62.1505954 C82,73.6654036 72.8218374,83 61.5,83 C50.1781626,83 41,73.6654036 41,62.1505954 C41,58.8443673 41.7566725,55.7178817 43.1034998,52.9404946 L56.4356125,69.099895 C56.9042156,69.667873 57.460279,70.1178538 58.0671129,70.4464588 C58.9689285,71.098318 60.0717168,71.4814843 61.2625809,71.4814843 C64.3119187,71.4814843 66.7826816,68.9684674 66.7826816,65.8685039 L66.7826816,42 Z" id="Combined-Shape"></path>
                <path d="M67,41 L70.9992759,41 C77.0748208,41 82,36.0748081 82,29.9992759 L82,11.0007241 C82,4.92517917 77.0748081,0 70.9992759,0 L52.0007241,0 C45.9251792,0 41,4.92519193 41,11.0007241 L41,29.9992759 C41,36.0748208 45.9251919,41 52.0007241,41 L56,41 L56,16.4777815 C56,13.4524863 58.461766,11 61.5,11 C64.5375661,11 67,13.450723 67,16.4777815 L67,41 Z" id="Combined-Shape"></path>
            </g>
        </g>
    </g>
</svg>