<svg width="280" height="280" viewBox="0 0 280 280" fill="none" xmlns="http://www.w3.org/2000/svg">
<g clip-path="url(#clip0_1_2)">
<path d="M228.038 142.347C257.956 150.303 280 177.577 280 210C280 248.66 248.66 280 210 280C171.34 280 140 248.66 140 210C140 198.9 142.584 188.403 147.183 179.078L192.707 233.332C194.307 235.239 196.206 236.75 198.278 237.853C201.357 240.042 205.123 241.328 209.189 241.328C219.602 241.328 228.038 232.891 228.038 222.483V142.347Z" fill="#61A7FF"/>
<path d="M50.5541 137.264C21.3549 128.837 0 101.912 0 70C0 31.3401 31.3401 0 70 0C108.66 0 140 31.3401 140 70C140 81.6945 137.132 92.7192 132.062 102.409L84.5793 45.822C84.1154 45.2692 83.6264 44.7497 83.1154 44.2637C79.6786 40.6227 74.8064 38.3514 69.4032 38.3514C58.9908 38.3514 50.5541 46.7886 50.5541 57.1964V137.264Z" fill="#61A7FF"/>
<path d="M50.5541 140H24.0669C10.7531 140 0 150.775 0 164.067V255.933C0 269.247 10.7751 280 24.0669 280H115.933C129.247 280 140 269.225 140 255.933V164.067C140 150.753 129.225 140 115.933 140H88.2523V222.483C88.2523 232.89 79.8156 241.328 69.4032 241.328C58.9931 241.328 50.5541 232.896 50.5541 222.483V140Z" fill="#FF61A7"/>
<path d="M228.038 140H255.933C269.247 140 280 129.225 280 115.933V24.0669C280 10.7531 269.225 0 255.933 0H164.067C150.753 0 140 10.7751 140 24.0669V115.933C140 129.247 150.775 140 164.067 140H190.34V57.1964C190.34 46.7886 198.777 38.3514 209.189 38.3514C219.599 38.3514 228.038 46.7825 228.038 57.1964V140Z" fill="#FF61A7"/>
</g>
<defs>
<clipPath id="clip0_1_2">
<rect width="280" height="280" fill="white"/>
</clipPath>
</defs>
</svg>
