<?xml version="1.0" encoding="UTF-8" standalone="no"?>
<svg width="40px" height="40px" viewBox="0 0 40 40" version="1.1" xmlns="http://www.w3.org/2000/svg" xmlns:xlink="http://www.w3.org/1999/xlink">
    <!-- Generator: Sketch 45.2 (43514) - http://www.bohemiancoding.com/sketch -->
    <title>circle</title>
    <desc>Created with Sketch.</desc>
    <defs></defs>
    <g id="Page-1" stroke="none" stroke-width="1" fill="none" fill-rule="evenodd">
        <g id="circle">
            <circle id="Oval-11" fill="#BDBDBD" cx="20" cy="20" r="20"></circle>
            <path d="M18.543457,24.293457 L18.543457,23.5288086 C18.543457,22.4243109 18.7133772,21.5157099 19.0532227,20.8029785 C19.3930681,20.0902471 20.0255488,19.3374063 20.9506836,18.5444336 C22.2345442,17.4588162 23.044025,16.6422553 23.3791504,16.0947266 C23.7142758,15.5471978 23.8818359,14.8863971 23.8818359,14.1123047 C23.8818359,13.1494092 23.5726756,12.4060085 22.9543457,11.8820801 C22.3360158,11.3581517 21.4462949,11.0961914 20.2851562,11.0961914 C19.5393843,11.0961914 18.8125035,11.1835115 18.1044922,11.3581543 C17.3964808,11.5327971 16.58464,11.8513974 15.6689453,12.3139648 L14.8334961,10.4023438 C16.6176847,9.46776876 18.4820866,9.00048828 20.4267578,9.00048828 C22.2298267,9.00048828 23.6316682,9.44416874 24.6323242,10.331543 C25.6329803,11.2189172 26.1333008,12.4697185 26.1333008,14.0839844 C26.1333008,14.7731154 26.0412607,15.3796361 25.8571777,15.9035645 C25.6730948,16.4274929 25.4016945,16.9230934 25.0429688,17.3903809 C24.684243,17.8576684 23.9101622,18.6105091 22.7207031,19.6489258 C21.7672478,20.4607788 21.1371272,21.1357395 20.8303223,21.6738281 C20.5235173,22.2119168 20.3701172,22.9293575 20.3701172,23.8261719 L20.3701172,24.293457 L18.543457,24.293457 Z M17.8496094,28.4990234 C17.8496094,27.2151629 18.41601,26.5732422 19.5488281,26.5732422 C20.0963569,26.5732422 20.5187973,26.7384424 20.8161621,27.0688477 C21.1135269,27.399253 21.262207,27.8759734 21.262207,28.4990234 C21.262207,29.1031931 21.1111669,29.5728336 20.809082,29.907959 C20.5069972,30.2430844 20.0869168,30.4106445 19.5488281,30.4106445 C19.0579403,30.4106445 18.6520198,30.2619644 18.3310547,29.9645996 C18.0100895,29.6672348 17.8496094,29.1787143 17.8496094,28.4990234 Z" id="?" fill="#FFFFFF"></path>
        </g>
    </g>
</svg>