<?xml version="1.0" encoding="UTF-8" standalone="no"?>
<svg width="30px" height="23px" viewBox="0 0 30 23" version="1.1" xmlns="http://www.w3.org/2000/svg" xmlns:xlink="http://www.w3.org/1999/xlink">
    <!-- Generator: Sketch 50.2 (55047) - http://www.bohemiancoding.com/sketch -->
    <title>hidewhite</title>
    <desc>Created with Sketch.</desc>
    <defs></defs>
    <g id="Page-1" stroke="none" stroke-width="1" fill="none" fill-rule="evenodd">
        <g id="Artboard-5" transform="translate(-2189.000000, -891.000000)">
            <g id="hidewhite" transform="translate(2191.000000, 891.000000)">
                <path d="M13,18 C20.1797017,18 26,12.5230641 26,11.1538462 C26,9.78462824 20.1797017,4.30769231 13,4.30769231 C5.82029825,4.30769231 1.59538948e-16,9.78173539 0,11.1538462 C0,12.5259569 5.82029825,18 13,18 Z" id="Oval-14" stroke="#FFFFFF" stroke-width="3"></path>
                <path d="M13,15.9846154 C9.6862915,15.9846154 7,13.3706471 7,10.1461538 C7,6.92166058 9.6862915,4.30769231 13,4.30769231 C16.3137085,4.30769231 19,6.92166058 19,10.1461538 C19,13.3706471 16.3137085,15.9846154 13,15.9846154 Z M10.9818182,10.0307692 C11.9759307,10.0307692 12.7818182,9.22488178 12.7818182,8.23076923 C12.7818182,7.23665668 11.9759307,6.43076923 10.9818182,6.43076923 C9.98770563,6.43076923 9.18181818,7.23665668 9.18181818,8.23076923 C9.18181818,9.22488178 9.98770563,10.0307692 10.9818182,10.0307692 Z" id="Combined-Shape" fill="#FFFFFF"></path>
                <rect id="Rectangle-27" fill="#FFFFFF" transform="translate(13.164894, 11.477400) rotate(135.000000) translate(-13.164894, -11.477400) " x="-1.19821656" y="9.97740019" width="28.7262215" height="3" rx="1.5"></rect>
            </g>
        </g>
    </g>
</svg>