<?xml version="1.0" encoding="UTF-8" standalone="no"?>
<svg width="30px" height="23px" viewBox="0 0 30 23" version="1.1" xmlns="http://www.w3.org/2000/svg" xmlns:xlink="http://www.w3.org/1999/xlink">
    <!-- Generator: Sketch 50.2 (55047) - http://www.bohemiancoding.com/sketch -->
    <title>hidegreynewnew</title>
    <desc>Created with Sketch.</desc>
    <defs></defs>
    <g id="Page-1" stroke="none" stroke-width="1" fill="none" fill-rule="evenodd">
        <g id="Artboard-5" transform="translate(-2107.000000, -887.000000)">
            <g id="hidegreynewnew" transform="translate(2109.000000, 887.000000)">
                <path d="M13,18 C20.1797017,18 26,12.5230641 26,11.1538462 C26,9.78462824 20.1797017,4.30769231 13,4.30769231 C5.82029825,4.30769231 1.59538948e-16,9.78173539 0,11.1538462 C0,12.5259569 5.82029825,18 13,18 Z" id="Oval-14" stroke="#C6C6C6" stroke-width="3"></path>
                <path d="M13,15.9846154 C9.6862915,15.9846154 7,13.3706471 7,10.1461538 C7,6.92166058 9.6862915,4.30769231 13,4.30769231 C16.3137085,4.30769231 19,6.92166058 19,10.1461538 C19,13.3706471 16.3137085,15.9846154 13,15.9846154 Z M11.25,10 C11.9403559,10 12.5,9.44035594 12.5,8.75 C12.5,8.05964406 11.9403559,7.5 11.25,7.5 C10.5596441,7.5 10,8.05964406 10,8.75 C10,9.44035594 10.5596441,10 11.25,10 Z" id="Combined-Shape" fill="#C6C6C6"></path>
                <rect id="Rectangle-27" fill="#C6C6C6" transform="translate(13.164894, 11.477400) rotate(135.000000) translate(-13.164894, -11.477400) " x="-1.19821656" y="9.97740019" width="28.7262215" height="3" rx="1.5"></rect>
            </g>
        </g>
    </g>
</svg>