<?xml version="1.0" encoding="UTF-8" standalone="no"?>
<svg width="128px" height="128px" viewBox="0 0 128 128" version="1.1" xmlns="http://www.w3.org/2000/svg" xmlns:xlink="http://www.w3.org/1999/xlink">
    <!-- Generator: Sketch 41 (35326) - http://www.bohemiancoding.com/sketch -->
    <title>Nudge logosvg</title>
    <desc>Created with Sketch.</desc>
    <defs></defs>
    <g id="Page-1" stroke="none" stroke-width="1" fill="none" fill-rule="evenodd">
        <path d="M104.246137,65.0725434 C117.922893,68.7097559 128,81.1780607 128,96 C128,113.673112 113.673112,128 96,128 C78.326888,128 64,113.673112 64,96 C64,90.9255481 65.1811474,86.1269679 67.2835118,81.8641898 L88.0946146,106.665896 C88.8260927,107.537638 89.694094,108.228276 90.6413469,108.732624 C92.0490592,109.733108 93.7704848,110.321198 95.6293945,110.321198 C100.389336,110.321198 104.246137,106.464179 104.246137,101.706305 L104.246137,65.0725434 Z" id="Combined-Shape" fill="#ffffff"></path>
        <path d="M23.110437,62.7490795 C9.76222501,58.8969682 0,46.588529 0,32 C0,14.326888 14.326888,0 32,0 C49.673112,0 64,14.326888 64,32 C64,37.3460625 62.6890266,42.3859307 60.3710225,46.8156621 L38.6648032,20.9471972 C38.452753,20.6944856 38.2292296,20.4569935 37.9956283,20.2348473 C36.4245139,18.5703826 34.1972172,17.5320557 31.7271797,17.5320557 C26.9672378,17.5320557 23.110437,21.3890743 23.110437,26.1469479 L23.110437,62.7490795 Z" id="Combined-Shape" fill="#ffffff"></path>
        <path d="M23.110437,64 L11.0019922,64 C4.91570377,64 0,68.9257597 0,75.0019922 L0,116.998008 C0,123.084296 4.9257597,128 11.0019922,128 L52.9980078,128 C59.0842962,128 64,123.07424 64,116.998008 L64,75.0019922 C64,68.9157038 59.0742403,64 52.9980078,64 L40.3439223,64 L40.3439223,101.706305 C40.3439223,106.464179 36.4871216,110.321198 31.7271797,110.321198 C26.9682841,110.321198 23.110437,106.466952 23.110437,101.706305 L23.110437,64 Z" id="Combined-Shape" fill="#ffffff"></path>
        <path d="M104.246137,64 L116.998008,64 C123.084296,64 128,59.0742403 128,52.9980078 L128,11.0019922 C128,4.91570377 123.07424,0 116.998008,0 L75.0019922,0 C68.9157038,0 64,4.9257597 64,11.0019922 L64,52.9980078 C64,59.0842962 68.9257597,64 75.0019922,64 L87.0126519,64 L87.0126519,26.1469479 C87.0126519,21.3890743 90.8694526,17.5320557 95.6293945,17.5320557 C100.38829,17.5320557 104.246137,21.3863012 104.246137,26.1469479 L104.246137,64 Z" id="Combined-Shape" fill="#ffffff"></path>
    </g>
</svg>