<?xml version="1.0" encoding="UTF-8" standalone="no"?>
<svg width="26px" height="26px" viewBox="0 0 26 26" version="1.1" xmlns="http://www.w3.org/2000/svg" xmlns:xlink="http://www.w3.org/1999/xlink">
    <!-- Generator: Sketch 50.2 (55047) - http://www.bohemiancoding.com/sketch -->
    <title>newcogwhite</title>
    <desc>Created with Sketch.</desc>
    <defs></defs>
    <g id="Page-1" stroke="none" stroke-width="1" fill="none" fill-rule="evenodd">
        <g id="Artboard-5" transform="translate(-2105.000000, -1036.000000)" fill="#FFFFFF">
            <path d="M2115.92,1040.1388 L2115.92,1038.21675 C2115.92,1036.99247 2116.90094,1036 2118.13,1036 C2119.35055,1036 2120.34,1036.98748 2120.34,1038.21675 L2120.34,1040.20368 C2121.21872,1040.43683 2122.04525,1040.79815 2122.79836,1041.26641 L2124.1573,1039.90748 C2125.02299,1039.04178 2126.41841,1039.03363 2127.28748,1039.90271 C2128.15054,1040.76576 2128.15193,1042.16367 2127.28271,1043.03289 L2125.87635,1044.43925 C2126.31942,1045.20277 2126.65465,1046.03663 2126.8612,1046.92 L2128.78325,1046.92 C2130.00753,1046.92 2131,1047.90094 2131,1049.13 C2131,1050.35055 2130.01252,1051.34 2128.78325,1051.34 L2126.79632,1051.34 C2126.567,1052.20428 2126.21369,1053.01807 2125.75658,1053.76117 L2127.18762,1055.19221 C2128.05331,1056.0579 2128.06146,1057.45331 2127.19239,1058.32239 C2126.32933,1059.18545 2124.93143,1059.18684 2124.06221,1058.31762 L2122.59876,1056.85417 C2121.90004,1057.26417 2121.14174,1057.5836 2120.34,1057.79632 L2120.34,1059.78325 C2120.34,1061.00753 2119.35906,1062 2118.13,1062 C2116.90945,1062 2115.92,1061.01252 2115.92,1059.78325 L2115.92,1057.8612 C2115.03663,1057.65465 2114.20277,1057.31942 2113.43925,1056.87635 L2112.03289,1058.28271 C2111.16719,1059.14841 2109.77178,1059.15656 2108.90271,1058.28748 C2108.03965,1057.42442 2108.03826,1056.02652 2108.90748,1055.1573 L2110.26641,1053.79836 C2109.79815,1053.04525 2109.43683,1052.21872 2109.20368,1051.34 L2107.21675,1051.34 C2105.99247,1051.34 2105,1050.35906 2105,1049.13 C2105,1047.90945 2105.98748,1046.92 2107.21675,1046.92 L2109.1388,1046.92 C2109.34878,1046.02195 2109.69176,1045.17506 2110.14583,1044.40124 L2108.81238,1043.06779 C2107.94669,1042.2021 2107.93854,1040.80669 2108.80761,1039.93761 C2109.67067,1039.07455 2111.06857,1039.07316 2111.93779,1039.94238 L2113.23883,1041.24342 C2114.05602,1040.74073 2114.9587,1040.36357 2115.92,1040.1388 Z M2118,1055 C2121.31371,1055 2124,1052.31371 2124,1049 C2124,1045.68629 2121.31371,1043 2118,1043 C2114.68629,1043 2112,1045.68629 2112,1049 C2112,1052.31371 2114.68629,1055 2118,1055 Z" id="newcogwhite"></path>
        </g>
    </g>
</svg>