<?xml version="1.0" encoding="UTF-8" standalone="no"?>
<svg width="34px" height="34px" viewBox="0 0 34 34" version="1.1" xmlns="http://www.w3.org/2000/svg" xmlns:xlink="http://www.w3.org/1999/xlink">
    <!-- Generator: Sketch 50.2 (55047) - http://www.bohemiancoding.com/sketch -->
    <title>Group 6 Copy 29</title>
    <desc>Created with Sketch.</desc>
    <defs></defs>
    <g id="Page-1" stroke="none" stroke-width="1" fill="none" fill-rule="evenodd">
        <g id="Artboard-5" transform="translate(-1786.000000, -680.000000)">
            <g id="Group-6-Copy-29" transform="translate(1786.000000, 680.000000)">
                <rect id="Rectangle-25" fill="#F5F5F5" x="0" y="0" width="34" height="34" rx="17"></rect>
                <g id="Group" transform="translate(8.000000, 8.000000)" fill="#E3E3E3">
                    <path d="M14.659613,9 C16.5829068,9.52020078 18,11.3034406 18,13.4233014 C18,15.9509423 15.9852814,18 13.5,18 C11.0147186,18 9,15.9509423 9,13.4233014 C9,12.697544 9.16609885,12.0112423 9.46174385,11.401572 L12.3883052,14.9487574 C12.4911693,15.0734355 12.613232,15.1722118 12.7464394,15.2443446 C12.9443989,15.3874357 13.1864744,15.4715453 13.4478836,15.4715453 C14.1172504,15.4715453 14.659613,14.9199075 14.659613,14.2394277 L14.659613,9 Z" id="Combined-Shape"></path>
                    <path d="M3.2499052,9 C1.37281289,8.44749784 0,6.68211811 0,4.58970876 C0,2.05488261 2.01471863,0 4.5,0 C6.98528137,0 9,2.05488261 9,4.58970876 C9,5.35648594 8.81564437,6.07934617 8.48967505,6.71469545 L5.43723795,3.00442296 C5.40741839,2.96817693 5.37598541,2.93411382 5.34313524,2.90225175 C5.12219726,2.66352025 4.80898367,2.51459467 4.46163464,2.51459467 C3.79226781,2.51459467 3.2499052,3.06780068 3.2499052,3.75021487 L3.2499052,9 Z" id="Combined-Shape"></path>
                    <path d="M3.2499052,9 L3.2499052,14.3024492 C3.2499052,14.9719151 3.79241495,15.5139184 4.46163464,15.5139184 C5.13100147,15.5139184 5.67336408,14.9715252 5.67336408,14.3024492 L5.67336408,9 L7.47327268,9 C8.3164609,9 9,9.67646277 9,10.5267273 L9,16.4732727 C9,17.3164609 8.32353723,18 7.47327268,18 L1.52672732,18 C0.683539104,18 0,17.3235372 0,16.4732727 L0,10.5267273 C0,9.6835391 0.67646277,9 1.52672732,9 L3.2499052,9 Z" id="Combined-Shape"></path>
                    <path d="M14.659613,9 L14.659613,3.67691455 C14.659613,3.00744861 14.1171033,2.46544533 13.4478836,2.46544533 C12.7785168,2.46544533 12.2361542,3.00783857 12.2361542,3.67691455 L12.2361542,9 L10.5267273,9 C9.6835391,9 9,8.32353723 9,7.47327268 L9,1.52672732 C9,0.683539104 9.67646277,0 10.5267273,0 L16.4732727,0 C17.3164609,0 18,0.67646277 18,1.52672732 L18,7.47327268 C18,8.3164609 17.3235372,9 16.4732727,9 L14.659613,9 Z" id="Combined-Shape"></path>
                </g>
            </g>
        </g>
    </g>
</svg>