<?xml version="1.0" encoding="UTF-8" standalone="no"?>
<svg width="26px" height="26px" viewBox="0 0 26 26" version="1.1" xmlns="http://www.w3.org/2000/svg" xmlns:xlink="http://www.w3.org/1999/xlink">
    <!-- Generator: Sketch 50.2 (55047) - http://www.bohemiancoding.com/sketch -->
    <title>newcoggrey</title>
    <desc>Created with Sketch.</desc>
    <defs></defs>
    <g id="Page-1" stroke="none" stroke-width="1" fill="none" fill-rule="evenodd">
        <g id="Artboard-5" transform="translate(-2191.000000, -1036.000000)" fill="#C6C6C6">
            <path d="M2201.92,1040.1388 L2201.92,1038.21675 C2201.92,1036.99247 2202.90094,1036 2204.13,1036 C2205.35055,1036 2206.34,1036.98748 2206.34,1038.21675 L2206.34,1040.20368 C2207.21872,1040.43683 2208.04525,1040.79815 2208.79836,1041.26641 L2210.1573,1039.90748 C2211.02299,1039.04178 2212.41841,1039.03363 2213.28748,1039.90271 C2214.15054,1040.76576 2214.15193,1042.16367 2213.28271,1043.03289 L2211.87635,1044.43925 C2212.31942,1045.20277 2212.65465,1046.03663 2212.8612,1046.92 L2214.78325,1046.92 C2216.00753,1046.92 2217,1047.90094 2217,1049.13 C2217,1050.35055 2216.01252,1051.34 2214.78325,1051.34 L2212.79632,1051.34 C2212.567,1052.20428 2212.21369,1053.01807 2211.75658,1053.76117 L2213.18762,1055.19221 C2214.05331,1056.0579 2214.06146,1057.45331 2213.19239,1058.32239 C2212.32933,1059.18545 2210.93143,1059.18684 2210.06221,1058.31762 L2208.59876,1056.85417 C2207.90004,1057.26417 2207.14174,1057.5836 2206.34,1057.79632 L2206.34,1059.78325 C2206.34,1061.00753 2205.35906,1062 2204.13,1062 C2202.90945,1062 2201.92,1061.01252 2201.92,1059.78325 L2201.92,1057.8612 C2201.03663,1057.65465 2200.20277,1057.31942 2199.43925,1056.87635 L2198.03289,1058.28271 C2197.16719,1059.14841 2195.77178,1059.15656 2194.90271,1058.28748 C2194.03965,1057.42442 2194.03826,1056.02652 2194.90748,1055.1573 L2196.26641,1053.79836 C2195.79815,1053.04525 2195.43683,1052.21872 2195.20368,1051.34 L2193.21675,1051.34 C2191.99247,1051.34 2191,1050.35906 2191,1049.13 C2191,1047.90945 2191.98748,1046.92 2193.21675,1046.92 L2195.1388,1046.92 C2195.34878,1046.02195 2195.69176,1045.17506 2196.14583,1044.40124 L2194.81238,1043.06779 C2193.94669,1042.2021 2193.93854,1040.80669 2194.80761,1039.93761 C2195.67067,1039.07455 2197.06857,1039.07316 2197.93779,1039.94238 L2199.23883,1041.24342 C2200.05602,1040.74073 2200.9587,1040.36357 2201.92,1040.1388 Z M2204,1055 C2207.31371,1055 2210,1052.31371 2210,1049 C2210,1045.68629 2207.31371,1043 2204,1043 C2200.68629,1043 2198,1045.68629 2198,1049 C2198,1052.31371 2200.68629,1055 2204,1055 Z" id="newcoggrey"></path>
        </g>
    </g>
</svg>