<?xml version="1.0" encoding="UTF-8" standalone="no"?>
<svg width="13px" height="14px" viewBox="0 0 13 14" version="1.1" xmlns="http://www.w3.org/2000/svg" xmlns:xlink="http://www.w3.org/1999/xlink">
    <!-- Generator: Sketch 41 (35326) - http://www.bohemiancoding.com/sketch -->
    <title>Combined Shape Copy 4</title>
    <desc>Created with Sketch.</desc>
    <defs></defs>
    <g id="Page-1" stroke="none" stroke-width="1" fill="none" fill-rule="evenodd">
        <g id="Artboard" transform="translate(-171.000000, -172.000000)" fill="#FFFFFF">
            <path d="M174.354615,173.992167 C172.305265,175.099251 171,177.241815 171,179.614035 C171,183.140906 173.859094,186 177.385965,186 C180.912836,186 183.77193,183.140906 183.77193,179.614035 C183.77193,177.243928 182.468996,175.102966 180.422515,173.994979 C180.064651,173.801228 179.61748,173.934268 179.423728,174.292131 C179.229977,174.649994 179.363017,175.097166 179.72088,175.290917 C181.296277,176.143854 182.298246,177.790274 182.298246,179.614035 C182.298246,182.327013 180.098943,184.526316 177.385965,184.526316 C174.672987,184.526316 172.473684,182.327013 172.473684,179.614035 C172.473684,177.788651 173.477449,176.140992 175.055047,175.288755 C175.41309,175.095336 175.546544,174.648288 175.353125,174.290245 C175.159706,173.932202 174.712658,173.798748 174.354615,173.992167 Z M176.649123,172.736842 L176.649123,179.631557 C176.649123,180.038503 176.979018,180.368399 177.385965,180.368399 C177.792912,180.368399 178.122807,180.038503 178.122807,179.631557 L178.122807,172.736842 C178.122807,172.329895 177.792912,172 177.385965,172 C176.979018,172 176.649123,172.329895 176.649123,172.736842 Z" id="Combined-Shape-Copy-4"></path>
        </g>
    </g>
</svg>