<?xml version="1.0" encoding="UTF-8" standalone="no"?>
<svg width="100px" height="100px" viewBox="0 0 100 100" version="1.1" xmlns="http://www.w3.org/2000/svg" xmlns:xlink="http://www.w3.org/1999/xlink">
    <!-- Generator: Sketch 50.2 (55047) - http://www.bohemiancoding.com/sketch -->
    <title>Combined Shape</title>
    <desc>Created with Sketch.</desc>
    <defs></defs>
    <g id="Page-1" stroke="none" stroke-width="1" fill="none" fill-rule="evenodd">
        <g id="Settings-cog" fill="#FFFFFF">
            <path d="M42,15.9184778 L42,8.50436343 C42,3.8075332 45.8151318,0 50.5,0 C55.1944204,0 59,3.79800797 59,8.50436343 L59,16.1679908 C62.3796854,17.0647177 65.5586474,18.454418 68.4552362,20.2554419 L73.6971851,15.0134931 C77.0183456,11.6923325 82.4083837,11.6977056 85.7210858,15.0104076 C89.0405422,18.3298641 89.0458962,23.7064125 85.7180003,27.0343083 L80.2936632,32.4586455 C81.9977632,35.3952577 83.2871079,38.6024342 84.0815222,42 L91.4956366,42 C96.1924668,42 100,45.8151318 100,50.5 C100,55.1944204 96.201992,59 91.4956366,59 L83.8320092,59 C82.9500189,62.3241444 81.5911249,65.4541085 79.8330174,68.3122021 L85.3522536,73.8314384 C88.6734142,77.1525989 88.6680411,82.542637 85.3553391,85.8553391 C82.0358826,89.1747955 76.6593342,89.1801495 73.3314384,85.8522536 L67.6875423,80.2083576 C65.0001351,81.785282 62.0836156,83.013838 59,83.8320092 L59,91.4956366 C59,96.1924668 55.1848682,100 50.5,100 C45.8055796,100 42,96.201992 42,91.4956366 L42,84.0815222 C38.6024342,83.2871079 35.3952577,81.9977632 32.4586455,80.2936632 L27.0343083,85.7180003 C23.7131478,89.0391609 18.3231097,89.0337878 15.0104076,85.7210858 C11.6909512,82.4016293 11.6855972,77.0250809 15.0134931,73.6971851 L20.2554419,68.4552362 C18.454418,65.5586474 17.0647177,62.3796854 16.1679908,59 L8.50436343,59 C3.8075332,59 0,55.1848682 0,50.5 C0,45.8055796 3.79800797,42 8.50436343,42 L15.9184778,42 C16.7260946,38.5459694 18.0452292,35.2887089 19.7916424,32.3124577 L14.6477464,27.1685616 C11.3265858,23.8474011 11.3319589,18.457363 14.6446609,15.1446609 C17.9641174,11.8252045 23.3406658,11.8198505 26.6685616,15.1477464 L31.6877979,20.1669826 C34.8308533,18.2335857 38.3026946,16.7829768 42,15.9184778 Z M50,70 C61.045695,70 70,61.045695 70,50 C70,38.954305 61.045695,30 50,30 C38.954305,30 30,38.954305 30,50 C30,61.045695 38.954305,70 50,70 Z" id="Combined-Shape"></path>
        </g>
    </g>
</svg>