<?xml version="1.0" encoding="UTF-8" standalone="no"?>
<svg width="40px" height="40px" viewBox="0 0 40 40" version="1.1" xmlns="http://www.w3.org/2000/svg" xmlns:xlink="http://www.w3.org/1999/xlink">
    <!-- Generator: Sketch 45.2 (43514) - http://www.bohemiancoding.com/sketch -->
    <title>circleheavy</title>
    <desc>Created with Sketch.</desc>
    <defs></defs>
    <g id="Page-1" stroke="none" stroke-width="1" fill="none" fill-rule="evenodd">
        <g id="circleheavy">
            <circle id="Oval-11" fill="#BDBDBD" cx="20" cy="20" r="20"></circle>
            <path d="M17.9716797,23.1323242 L17.9716797,22.0844727 C17.9716797,21.1782181 18.1651999,20.3899773 18.5522461,19.7197266 C18.9392923,19.0494758 19.647293,18.3367551 20.6762695,17.581543 C21.6674854,16.8735316 22.3212061,16.297691 22.6374512,15.8540039 C22.9536962,15.4103168 23.1118164,14.9147163 23.1118164,14.3671875 C23.1118164,13.7535777 22.8852562,13.2862972 22.4321289,12.965332 C21.9790016,12.6443669 21.346521,12.4838867 20.534668,12.4838867 C19.1186453,12.4838867 17.5044036,12.9464472 15.6918945,13.871582 L14.1484375,10.7705078 C16.2535913,9.59048889 18.4861536,9.00048828 20.8461914,9.00048828 C22.7908626,9.00048828 24.3366642,9.46776876 25.4836426,10.4023438 C26.630621,11.3369187 27.2041016,12.583 27.2041016,14.140625 C27.2041016,15.1790417 26.9681013,16.0758426 26.4960938,16.8310547 C26.0240862,17.5862668 25.1272853,18.4358677 23.8056641,19.3798828 C22.8994095,20.0501336 22.3259289,20.5598941 22.0852051,20.9091797 C21.8444812,21.2584653 21.7241211,21.7163058 21.7241211,22.2827148 L21.7241211,23.1323242 L17.9716797,23.1323242 Z M17.5185547,27.9750977 C17.5185547,27.1821249 17.7309549,26.5826843 18.1557617,26.1767578 C18.5805685,25.7708313 19.1988892,25.5678711 20.0107422,25.5678711 C20.7942748,25.5678711 21.4007954,25.7755513 21.8303223,26.190918 C22.2598492,26.6062846 22.4746094,27.2010052 22.4746094,27.9750977 C22.4746094,28.7208696 22.2574892,29.3085102 21.8232422,29.7380371 C21.3889952,30.167564 20.7848346,30.3823242 20.0107422,30.3823242 C19.2177695,30.3823242 18.6041688,30.172284 18.1699219,29.7521973 C17.7356749,29.3321105 17.5185547,28.7397499 17.5185547,27.9750977 Z" id="?" fill="#FFFFFF"></path>
        </g>
    </g>
</svg>