<?xml version="1.0" encoding="UTF-8" standalone="no"?>
<svg width="14px" height="14px" viewBox="0 0 14 14" version="1.1" xmlns="http://www.w3.org/2000/svg" xmlns:xlink="http://www.w3.org/1999/xlink">
    <!-- Generator: Sketch 45.2 (43514) - http://www.bohemiancoding.com/sketch -->
    <title>closewhite</title>
    <desc>Created with Sketch.</desc>
    <defs></defs>
    <g id="Page-1" stroke="none" stroke-width="1" fill="none" fill-rule="evenodd">
        <g id="closewhite" fill-rule="nonzero" fill="#FFFFFF">
            <path d="M7,5.79791847 L4.10104076,2.89895924 C3.76909512,2.56701359 3.23090488,2.56701359 2.89895924,2.89895924 C2.56701359,3.23090488 2.56701359,3.76909512 2.89895924,4.10104076 L5.79791847,7 L2.89895924,9.89895924 C2.56701359,10.2309049 2.56701359,10.7690951 2.89895924,11.1010408 C3.23090488,11.4329864 3.76909512,11.4329864 4.10104076,11.1010408 L7,8.20208153 L9.89895924,11.1010408 C10.2309049,11.4329864 10.7690951,11.4329864 11.1010408,11.1010408 C11.4329864,10.7690951 11.4329864,10.2309049 11.1010408,9.89895924 L8.20208153,7 L11.1010408,4.10104076 C11.4329864,3.76909512 11.4329864,3.23090488 11.1010408,2.89895924 C10.7690951,2.56701359 10.2309049,2.56701359 9.89895924,2.89895924 L7,5.79791847 Z" id="Combined-Shape"></path>
        </g>
    </g>
</svg>