<?xml version="1.0" encoding="UTF-8" standalone="no"?>
<svg width="13px" height="13px" viewBox="0 0 13 13" version="1.1" xmlns="http://www.w3.org/2000/svg" xmlns:xlink="http://www.w3.org/1999/xlink">
    <!-- Generator: Sketch 45.2 (43514) - http://www.bohemiancoding.com/sketch -->
    <title>smalllogocolour</title>
    <desc>Created with Sketch.</desc>
    <defs></defs>
    <g id="Page-1" stroke="none" stroke-width="1" fill="none" fill-rule="evenodd">
        <g id="Artboard-4" transform="translate(-362.000000, -456.000000)">
            <g id="smalllogocolour" transform="translate(362.000000, 456.000000)">
                <path d="M10.5874983,6.60893019 C11.9765438,6.97833458 13,8.24464679 13,9.75 C13,11.5449254 11.5449254,13 9.75,13 C7.95507456,13 6.5,11.5449254 6.5,9.75 C6.5,9.23462598 6.61996028,8.74727018 6.83348167,8.31433178 L8.94710929,10.8332551 C9.02140004,10.9217914 9.10955642,10.9919343 9.20576179,11.0431571 C9.34873257,11.1447688 9.52356486,11.2044966 9.71236038,11.2044966 C10.195792,11.2044966 10.5874983,10.8127682 10.5874983,10.3295466 L10.5874983,6.60893019 Z" id="Combined-Shape" fill="#61A7FF"></path>
                <path d="M2.34715376,6.37295339 C0.991475978,5.98172333 0,4.73164748 0,3.25 C0,1.45507456 1.45507456,0 3.25,0 C5.04492544,0 6.5,1.45507456 6.5,3.25 C6.5,3.79295947 6.36685427,4.30482109 6.13143198,4.75471568 L3.92689408,2.12744972 C3.90535772,2.10178369 3.88265613,2.0776634 3.858931,2.05510168 C3.69936469,1.88605449 3.47315487,1.7805994 3.22229169,1.7805994 C2.73886009,1.7805994 2.34715376,2.17232786 2.34715376,2.6555494 L2.34715376,6.37295339 Z" id="Combined-Shape" fill="#61A7FF"></path>
                <path d="M2.34715376,6.5 L1.1,6.5 L1.1,6.5 C0.492486775,6.5 -7.43989126e-17,6.99248678 0,7.6 L0,7.6 L0,11.9 C7.43989126e-17,12.5075132 0.492486775,13 1.1,13 L5.4,13 C6.00751322,13 6.5,12.5075132 6.5,11.9 L6.5,7.6 C6.5,6.99248678 6.00751322,6.5 5.4,6.5 L4.09742961,6.5 L4.09742961,10.3295466 C4.09742961,10.8127682 3.70572329,11.2044966 3.22229169,11.2044966 C2.73896636,11.2044966 2.34715376,10.8130498 2.34715376,10.3295466 L2.34715376,6.5 Z" id="Combined-Shape" fill="#FF61A7"></path>
                <path d="M10.5874983,6.5 L11.9,6.5 C12.5075132,6.5 13,6.00751322 13,5.4 L13,1.1 C13,0.492486775 12.5075132,-1.11598369e-16 11.9,0 L7.6,0 L7.6,0 C6.99248678,1.11598369e-16 6.5,0.492486775 6.5,1.1 L6.5,1.1 L6.5,5.4 C6.5,6.00751322 6.99248678,6.5 7.6,6.5 L8.83722245,6.5 L8.83722245,2.6555494 C8.83722245,2.17232786 9.22892878,1.7805994 9.71236038,1.7805994 C10.1956857,1.7805994 10.5874983,2.17204622 10.5874983,2.6555494 L10.5874983,6.5 Z" id="Combined-Shape" fill="#FF61A7"></path>
            </g>
        </g>
    </g>
</svg>